<svg width="24" height="24" viewBox="0 0 24 24" fill="none" xmlns="http://www.w3.org/2000/svg">
<path d="M23.2502 9.75018C23.2501 9.17529 23.0848 8.61254 22.7739 8.12892C22.4631 7.6453 22.0199 7.26116 21.497 7.02224C20.9741 6.78331 20.3936 6.69966 19.8245 6.78123C19.2554 6.86281 18.7218 7.10617 18.2871 7.48237C16.7168 6.64799 14.8408 6.14362 12.8815 6.02643L13.368 3.10424L15.0293 3.35924C15.1135 3.88327 15.3804 4.36064 15.7826 4.70697C16.1848 5.0533 16.6965 5.24629 17.2272 5.25183C17.758 5.25737 18.2736 5.07511 18.6829 4.73726C19.0923 4.39941 19.369 3.92772 19.4642 3.40556C19.5594 2.8834 19.467 2.34439 19.2032 1.88381C18.9394 1.42322 18.5213 1.07071 18.0228 0.888573C17.5243 0.706439 16.9774 0.706412 16.4788 0.888497C15.9803 1.07058 15.5621 1.42305 15.2983 1.88362L12.8608 1.50862C12.6658 1.47855 12.4668 1.52654 12.307 1.64218C12.1471 1.75783 12.0392 1.93181 12.0068 2.12643L11.3627 6.01518C9.3152 6.1033 7.34833 6.6133 5.71333 7.48237C5.11624 6.97796 4.34586 6.72651 3.56617 6.78153C2.78649 6.83655 2.05906 7.19369 1.53872 7.77695C1.01838 8.36021 0.746224 9.12352 0.780178 9.90441C0.814132 10.6853 1.15151 11.4221 1.72051 11.958C1.57469 12.4591 1.50052 12.9783 1.5002 13.5002C1.5002 15.5561 2.6252 17.4705 4.67926 18.8899C6.6452 20.2502 9.24489 21.0002 12.0002 21.0002C14.7555 21.0002 17.3552 20.2502 19.3211 18.8899C21.3752 17.4705 22.5002 15.5561 22.5002 13.5002C22.4999 12.9783 22.4257 12.4591 22.2799 11.958C22.5849 11.6766 22.8284 11.3352 22.9954 10.9553C23.1624 10.5754 23.2491 10.1651 23.2502 9.75018ZM6.7502 12.0002C6.7502 11.7035 6.83818 11.4135 7.003 11.1668C7.16782 10.9201 7.40209 10.7279 7.67618 10.6144C7.95027 10.5008 8.25187 10.4711 8.54284 10.529C8.83381 10.5869 9.10108 10.7297 9.31086 10.9395C9.52064 11.1493 9.6635 11.4166 9.72138 11.7075C9.77926 11.9985 9.74955 12.3001 9.63602 12.5742C9.52249 12.8483 9.33023 13.0826 9.08356 13.2474C8.83688 13.4122 8.54687 13.5002 8.2502 13.5002C7.85238 13.5002 7.47085 13.3421 7.18954 13.0608C6.90824 12.7795 6.7502 12.398 6.7502 12.0002ZM15.3518 17.163C14.3197 17.7114 13.1689 17.9982 12.0002 17.9982C10.8315 17.9982 9.68066 17.7114 8.64864 17.163C8.5616 17.1168 8.4845 17.054 8.42175 16.978C8.35901 16.902 8.31183 16.8145 8.28293 16.7203C8.25403 16.6261 8.24396 16.5271 8.25331 16.429C8.26265 16.3309 8.29122 16.2357 8.33739 16.1486C8.38356 16.0616 8.44642 15.9845 8.52238 15.9217C8.59834 15.859 8.68592 15.8118 8.78012 15.7829C8.87431 15.754 8.97327 15.7439 9.07136 15.7533C9.16944 15.7626 9.26472 15.7912 9.35177 15.8374C10.1672 16.2709 11.0767 16.4976 12.0002 16.4976C12.9237 16.4976 13.8332 16.2709 14.6486 15.8374C14.7357 15.7912 14.831 15.7626 14.929 15.7533C15.0271 15.7439 15.1261 15.754 15.2203 15.7829C15.3145 15.8118 15.4021 15.859 15.478 15.9217C15.554 15.9845 15.6168 16.0616 15.663 16.1486C15.7092 16.2357 15.7378 16.3309 15.7471 16.429C15.7564 16.5271 15.7464 16.6261 15.7175 16.7203C15.6886 16.8145 15.6414 16.902 15.5787 16.978C15.5159 17.054 15.4388 17.1168 15.3518 17.163ZM15.7502 13.5002C15.4535 13.5002 15.1635 13.4122 14.9168 13.2474C14.6702 13.0826 14.4779 12.8483 14.3644 12.5742C14.2509 12.3001 14.2211 11.9985 14.279 11.7075C14.3369 11.4166 14.4798 11.1493 14.6895 10.9395C14.8993 10.7297 15.1666 10.5869 15.4576 10.529C15.7485 10.4711 16.0501 10.5008 16.3242 10.6144C16.5983 10.7279 16.8326 10.9201 16.9974 11.1668C17.1622 11.4135 17.2502 11.7035 17.2502 12.0002C17.2502 12.398 17.0922 12.7795 16.8109 13.0608C16.5296 13.3421 16.148 13.5002 15.7502 13.5002Z" fill="#42413C" fill-opacity="0.9"/>
</svg>
