<svg width="48" height="48" viewBox="0 0 48 48" fill="none" xmlns="http://www.w3.org/2000/svg">
<path d="M39.0918 22.5918C38.8828 22.8016 38.6344 22.968 38.3609 23.0816C38.0874 23.1951 37.7942 23.2536 37.498 23.2536C37.2019 23.2536 36.9087 23.1951 36.6352 23.0816C36.3617 22.968 36.1133 22.8016 35.9043 22.5918L26.2499 12.9375V40.4999C26.2499 41.0967 26.0129 41.669 25.5909 42.0909C25.169 42.5129 24.5967 42.7499 23.9999 42.7499C23.4032 42.7499 22.8309 42.5129 22.4089 42.0909C21.987 41.669 21.7499 41.0967 21.7499 40.4999V12.9375L12.0918 22.5918C11.6691 23.0145 11.0958 23.252 10.498 23.252C9.90027 23.252 9.32698 23.0145 8.90429 22.5918C8.4816 22.1691 8.24414 21.5958 8.24414 20.9981C8.24414 20.4003 8.4816 19.827 8.90429 19.4043L22.4043 5.90433C22.6133 5.69457 22.8617 5.52814 23.1352 5.41457C23.4087 5.30101 23.7019 5.24255 23.998 5.24255C24.2942 5.24255 24.5874 5.30101 24.8609 5.41457C25.1344 5.52814 25.3828 5.69457 25.5918 5.90433L39.0918 19.4043C39.3016 19.6134 39.468 19.8617 39.5815 20.1352C39.6951 20.4087 39.7536 20.7019 39.7536 20.9981C39.7536 21.2942 39.6951 21.5874 39.5815 21.8609C39.468 22.1344 39.3016 22.3828 39.0918 22.5918Z" fill="#FCFCFA" fill-opacity="1"/>
</svg>
